#tb 0: 1/25
0,          9,          9,        1,   622080, 0xb3b66c5c
0,         10,         10,        1,   622080, 0xc69368eb
0,         11,         11,        1,   622080, 0x76bdde33
0,         12,         12,        1,   622080, 0x5a04d7a6
0,         13,         13,        1,   622080, 0x68eacaec
0,         14,         14,        1,   622080, 0x1e888865
0,         15,         15,        1,   622080, 0x188ad805
0,         16,         16,        1,   622080, 0x268e94ce
0,         17,         17,        1,   622080, 0x89da806c
0,         18,         18,        1,   622080, 0x507ec6c9
0,         19,         19,        1,   622080, 0xf20ba69b
0,         20,         20,        1,   622080, 0x5786a96e
0,         21,         21,        1,   622080, 0xf9d2fd6e
0,         22,         22,        1,   622080, 0x4b69ef51
0,         23,         23,        1,   622080, 0x19a22b06
0,         24,         24,        1,   622080, 0x13a30e94
0,         25,         25,        1,   622080, 0x02435f86
0,         26,         26,        1,   622080, 0x06794a00
0,         27,         27,        1,   622080, 0x289e8aea
0,         28,         28,        1,   622080, 0x494ab1a4
0,         29,         29,        1,   622080, 0xc1c6f5da
0,         30,         30,        1,   622080, 0x1f6d6764
0,         31,         31,        1,   622080, 0xaa898832
0,         32,         32,        1,   622080, 0x6935c412
0,         33,         33,        1,   622080, 0x825e2a67
0,         34,         34,        1,   622080, 0xd8ee113a
0,         35,         35,        1,   622080, 0x9ffc7f17
0,         36,         36,        1,   622080, 0xa7819ac8
0,         37,         37,        1,   622080, 0xa412377d
0,         38,         38,        1,   622080, 0x538376bc
